<svg width="917" height="258" xmlns="http://www.w3.org/2000/svg" xmlns:xlink="http://www.w3.org/1999/xlink" overflow="hidden"><defs><clipPath id="clip0"><path d="M163 247 1080 247 1080 505 163 505Z" fill-rule="evenodd" clip-rule="evenodd"/></clipPath></defs><g clip-path="url(#clip0)" transform="translate(-163 -247)"><rect x="459.5" y="263.5" width="384" height="240" stroke="#0000FF" stroke-width="3" stroke-miterlimit="8" stroke-dasharray="3 3" fill="none"/><text fill="#0000FF" font-family="Times New Roman,Times New Roman_MSFontService,sans-serif" font-weight="700" font-size="16" transform="translate(390.921 300)">port_a1<tspan x="-0.833344" y="166">port_b2</tspan><tspan x="469.345" y="0">port_b1</tspan><tspan x="469.345" y="167">port_a2</tspan></text><rect x="524" y="248" width="259" height="29" fill="#FFFFFF"/><text fill="#0000FF" font-family="Times New Roman,Times New Roman_MSFontService,sans-serif" font-weight="700" font-size="16" transform="translate(538.421 268)">ENERGY TRANSFER STATION</text><path d="M351.5 332C347.358 332 344 328.642 344 324.5 344 321.739 345.517 319.202 347.948 317.894" stroke="#000000" stroke-width="2" stroke-miterlimit="8" fill="none" fill-rule="evenodd"/><path d="M343.5 304C347.642 304 351 307.358 351 311.5 351 314.456 349.263 317.137 346.565 318.345" stroke="#000000" stroke-width="2" stroke-miterlimit="8" fill="none" fill-rule="evenodd"/><path d="M943.5 332C939.358 332 936 328.642 936 324.5 936 321.739 937.517 319.202 939.948 317.894" stroke="#000000" stroke-width="2" stroke-miterlimit="8" fill="none" fill-rule="evenodd"/><path d="M935.5 304C939.642 304 943 307.358 943 311.5 943 314.456 941.263 317.137 938.565 318.345" stroke="#000000" stroke-width="2" stroke-miterlimit="8" fill="none" fill-rule="evenodd"/><path d="M943.5 455C939.358 455 936 451.418 936 447 936 444.134 937.438 441.486 939.769 440.06" stroke="#000000" stroke-width="2" stroke-miterlimit="8" fill="none" fill-rule="evenodd"/><path d="M935.5 426C939.642 426 943 429.358 943 433.5 943 436.456 941.263 439.137 938.565 440.345" stroke="#000000" stroke-width="2" stroke-miterlimit="8" fill="none" fill-rule="evenodd"/><text font-family="Times New Roman,Times New Roman_MSFontService,sans-serif" font-weight="700" font-size="16" transform="translate(236.268 323)">District Supply<tspan x="714.445" y="123">Building Return</tspan><tspan x="714.445" y="2">District Return</tspan></text><path d="M304.5 454C300.358 454 297 450.418 297 446 297 443.134 298.438 440.486 300.769 439.06" stroke="#000000" stroke-width="2" stroke-miterlimit="8" fill="none" fill-rule="evenodd"/><path d="M296.5 425C300.642 425 304 428.358 304 432.5 304 435.456 302.263 438.137 299.565 439.345" stroke="#000000" stroke-width="2" stroke-miterlimit="8" fill="none" fill-rule="evenodd"/><text font-family="Times New Roman,Times New Roman_MSFontService,sans-serif" font-weight="700" font-size="16" transform="translate(181.135 445)">Building Supply</text><path d="M513.5 415C513.5 409.753 517.753 405.5 523 405.5 528.247 405.5 532.5 409.753 532.5 415 532.5 420.247 528.247 424.5 523 424.5 517.753 424.5 513.5 420.247 513.5 415Z" stroke="#000000" stroke-width="1.33333" stroke-miterlimit="8" fill="#FFFFFF" fill-rule="evenodd"/><text font-family="Times New Roman,Times New Roman_MSFontService,sans-serif" font-weight="700" font-size="13" transform="translate(518.155 420)">T</text><path d="M0 0 0.000104987 14.1145" stroke="#000000" stroke-width="1.33333" stroke-miterlimit="8" fill="none" fill-rule="evenodd" transform="matrix(-1 -8.74228e-08 -8.74228e-08 1 523.5 425.5)"/><path d="M691 385 672 378 691 371Z" fill-rule="evenodd"/><path d="M378 439C378 449.493 369.493 458 359 458 348.507 458 340 449.493 340 439 340 428.507 348.507 420 359 420 369.493 420 378 428.507 378 439Z" stroke="#000000" stroke-width="2" stroke-miterlimit="8" fill="none" fill-rule="evenodd"/><path d="M370.5 454.5 341.5 440 370.5 425.5Z" stroke="#000000" stroke-width="1.33333" stroke-miterlimit="8" fill-rule="evenodd"/><text font-family="Times New Roman,Times New Roman_MSFontService,sans-serif" font-weight="700" font-size="16" transform="translate(315.893 389)">In-<tspan x="20.3333" y="0">Building </tspan><tspan x="8.41333" y="20">Pumping</tspan></text><path d="M0 0 38.4 0.000104987" stroke="#000000" stroke-width="2" stroke-miterlimit="8" fill="none" fill-rule="evenodd" transform="matrix(1 0 0 -1 300 439)"/><text font-family="Times New Roman,Times New Roman_MSFontService,sans-serif" font-weight="700" font-size="16" transform="translate(714.143 345)">Control <tspan x="7.67334" y="20">Valve</tspan></text><path d="M757 328 742 318.5 757 309Z" stroke="#000000" stroke-width="2" stroke-miterlimit="8" fill="none" fill-rule="evenodd"/><path d="M726 309 741 318.5 726 328Z" stroke="#000000" stroke-width="2" stroke-miterlimit="8" fill="none" fill-rule="evenodd"/><path d="M0 0 0.000104987 14.1145" stroke="#000000" stroke-width="1.33333" stroke-miterlimit="8" fill="none" fill-rule="evenodd" transform="matrix(-1 -8.74228e-08 -8.74228e-08 1 742.5 306.5)"/><path d="M732.5 306.015C732.492 300.768 736.739 296.508 741.985 296.5 747.232 296.492 751.492 300.739 751.5 305.985 751.5 305.99 751.5 305.995 751.5 306L742 306Z" stroke="#000000" stroke-width="1.33333" stroke-miterlimit="8" fill="#FFFFFF" fill-rule="evenodd"/><path d="M27 18.7433 27 0.256731 0 19 0 0" stroke="#000000" stroke-width="2" stroke-miterlimit="8" fill="none" fill-rule="evenodd" transform="matrix(-1 -8.74228e-08 -8.74228e-08 1 658 370)"/><rect x="0" y="0" width="31" height="4" fill="#FFFFFF" transform="matrix(-1 -8.74228e-08 -8.74228e-08 1 660 366)"/><rect x="0" y="0" width="31" height="5" fill="#FFFFFF" transform="matrix(-1 -8.74228e-08 -8.74228e-08 1 660 389)"/><path d="M0 3 28 3 19.25 0" stroke="#000000" stroke-width="2" stroke-miterlimit="8" fill="none" fill-rule="evenodd" transform="matrix(-1 -8.74228e-08 -8.74228e-08 1 659 363)"/><rect x="0" y="0" width="5" height="23" fill="#FFFFFF" transform="matrix(-1 -8.74228e-08 -8.74228e-08 1 630 363)"/><text font-family="Times New Roman,Times New Roman_MSFontService,sans-serif" font-weight="700" font-size="16" transform="translate(622.227 405)">Check <tspan x="2.90002" y="20">Valve</tspan></text><path d="M347 318 587 318" stroke="#000000" stroke-width="2" stroke-miterlimit="8" fill="none" fill-rule="evenodd"/><path d="M378 439 587.223 439" stroke="#000000" stroke-width="2" stroke-miterlimit="8" fill="none" fill-rule="evenodd"/><path d="M586 318 586 438.542" stroke="#000000" stroke-width="2" stroke-miterlimit="8" fill="none" fill-rule="evenodd"/><path d="M702 318 702 441.305" stroke="#000000" stroke-width="2" stroke-miterlimit="8" fill="none" fill-rule="evenodd"/><path d="M756 318 937.934 318" stroke="#000000" stroke-width="2" stroke-miterlimit="8" fill="none" fill-rule="evenodd"/><path d="M702 440 939.464 440" stroke="#000000" stroke-width="2" stroke-miterlimit="8" fill="none" fill-rule="evenodd"/><path d="M551 311 570 318 551 325Z" fill-rule="evenodd"/><path d="M570 447 551 440 570 433Z" fill-rule="evenodd"/><path d="M796 311 815 318 796 325Z" fill-rule="evenodd"/><path d="M810 447 790 440 810 433Z" fill-rule="evenodd"/><rect x="482" y="304" width="54" height="29" stroke="#000000" stroke-width="2" stroke-linejoin="round" stroke-miterlimit="10" fill="#FFFFFF"/><text font-family="Times New Roman,Times New Roman_MSFontService,sans-serif" font-weight="700" font-size="16" transform="translate(487.945 324)">Meter</text><path d="M449 440.5C449 435.253 453.253 431 458.5 431 463.747 431 468 435.253 468 440.5 468 445.747 463.747 450 458.5 450 453.253 450 449 445.747 449 440.5Z" stroke="#0000FF" stroke-width="2" stroke-miterlimit="8" fill="#FFFFFF" fill-rule="evenodd"/><path d="M834 440.5C834 435.253 838.253 431 843.5 431 848.747 431 853 435.253 853 440.5 853 445.747 848.747 450 843.5 450 838.253 450 834 445.747 834 440.5Z" stroke="#0000FF" stroke-width="2" stroke-miterlimit="8" fill="#0000FF" fill-rule="evenodd"/><path d="M449 318.5C449 313.253 453.253 309 458.5 309 463.747 309 468 313.253 468 318.5 468 323.747 463.747 328 458.5 328 453.253 328 449 323.747 449 318.5Z" stroke="#0000FF" stroke-width="2" stroke-miterlimit="8" fill="#0000FF" fill-rule="evenodd"/><path d="M834 318.5C834 313.253 838.253 309 843.5 309 848.747 309 853 313.253 853 318.5 853 323.747 848.747 328 843.5 328 838.253 328 834 323.747 834 318.5Z" stroke="#0000FF" stroke-width="2" stroke-miterlimit="8" fill="#FFFFFF" fill-rule="evenodd"/><path d="M0 0 23.8368 0.000104987" stroke="#000000" stroke-width="2" stroke-miterlimit="8" fill="none" fill-rule="evenodd" transform="matrix(-1 -8.74228e-08 -8.74228e-08 1 725.837 318)"/><path d="M659 378 702.064 378" stroke="#000000" stroke-width="2" stroke-miterlimit="8" fill="none" fill-rule="evenodd"/><path d="M586 378 630.532 378" stroke="#000000" stroke-width="2" stroke-miterlimit="8" fill="none" fill-rule="evenodd"/></g></svg>